<COLLADA xmlns="http://www.collada.org/2005/11/COLLADASchema" version="1.4.1">
  <asset>
    <contributor/>
    <created>2024-12-21T01:15:26.955020</created>
    <modified>2024-12-21T01:15:26.955022</modified>
    <unit name="meter" meter="1.0"/>
    <up_axis>Z_UP</up_axis>
  </asset>
  <library_effects>
    <effect id="effect_krytn_tray_body_shape001" name="effect_krytn_tray_body_shape001">
      <profile_COMMON>
        <technique sid="common">
          <phong>
            <emission>
              <color>0.0 0.0 0.0 1.0</color>
            </emission>
            <ambient>
              <color>0.0 0.0 0.0 1.0</color>
            </ambient>
            <diffuse>
              <color>0.800000011920929 0.800000011920929 0.9019610285758972 1.0</color>
            </diffuse>
            <specular>
              <color>1 1 1 1.0</color>
            </specular>
            <shininess>
              <float>0.0</float>
            </shininess>
            <reflective>
              <color>0.0 0.0 0.0 1.0</color>
            </reflective>
            <reflectivity>
              <float>0.0</float>
            </reflectivity>
            <transparent>
              <color>0.0 0.0 0.0 1.0</color>
            </transparent>
            <transparency>
              <float>1.0</float>
            </transparency>
          </phong>
        </technique>
        <extra>
          <technique profile="GOOGLEEARTH">
            <double_sided>0</double_sided>
          </technique>
        </extra>
      </profile_COMMON>
    </effect>
  </library_effects>
  <library_geometries>
    <geometry id="geometry0" name="krytn_tray_body_shape001">
      <mesh>
        <source id="cubeverts-array0">
          <float_array count="912" id="cubeverts-array0-array">-0.03879493 0.2074936 0.09956602 -0.1446816 0.35 0.09956602 -0.03745795 0.2088643 0.09956602 -0.0360543 0.2101667 0.09956602 -0.04006193 0.2060579 0.09956602 -0.03458748 0.2113975 0.09956602 -0.04125579 0.2045608 0.09956602 -0.03306113 0.2125537 0.09956602 -0.04237354 0.2030061 0.09956602 -0.03147905 0.2136323 0.09956602 -0.04341241 0.2013977 0.09956602 -0.02984517 0.2146308 0.09956602 -0.04436981 0.1997394 0.09956602 -0.02816355 0.2155465 0.09956602 -0.04524336 0.1980355 0.09956602 -0.02643837 0.2163773 0.09956602 -0.04603089 0.1962901 0.09956602 -0.02467393 0.2171211 0.09956602 -0.04673045 0.1945077 0.09956602 -0.02287461 0.217776 0.09956602 -0.04734029 0.1926926 0.09956602 -0.02104487 0.2183404 0.09956602 -0.04785889 0.1908493 0.09956602 -0.01918929 0.2188129 0.09956602 -0.04828497 0.1889826 0.09956602 -0.01731245 0.2191923 0.09956602 -0.04861748 0.1870968 0.09956602 -0.01541904 0.2194777 0.09956602 -0.04885557 0.1851969 0.09956602 -0.01351375 0.2196684 0.09956602 -0.04899866 0.1832875 0.09956602 -0.01160133 0.2197638 0.09956602 -0.0490464 0.1813733 0.09956602 -0.04899866 0.1794591 0.09956602 0.1226361 0.35 0.09956602 -0.009686533 0.2197638 0.09956602 -0.007774113 0.2196684 0.09956602 -0.005868828 0.2194777 0.09956602 -0.003975415 0.2191923 0.09956602 -0.00209858 0.2188129 0.09956602 -0.0002429909 0.2183404 0.09956602 0.00158674 0.217776 0.09956602 0.003386064 0.2171211 0.09956602 0.005150506 0.2163773 0.09956602 0.006875682 0.2155465 0.09956602 0.008557301 0.2146308 0.09956602 0.01019118 0.2136323 0.09956602 0.01177326 0.2125537 0.09956602 0.01329961 0.2113975 0.09956602 0.01476644 0.2101667 0.09956602 0.01617008 0.2088643 0.09956602 0.01750707 0.2074936 0.09956602 0.01877406 0.2060579 0.09956602 0.01996792 0.2045608 0.09956602 0.02108567 0.2030061 0.09956602 0.02212454 0.2013977 0.09956602 0.02308194 0.1997394 0.09956602 0.02395549 0.1980355 0.09956602 0.02474303 0.1962901 0.09956602 0.02544258 0.1945077 0.09956602 0.02605242 0.1926926 0.09956602 0.02657103 0.1908493 0.09956602 0.02699711 0.1889826 0.09956602 0.02732961 0.1870968 0.09956602 0.0275677 0.1851969 0.09956602 0.0277108 0.1832875 0.09956602 0.02775853 0.1813733 0.09956602 0.0277108 0.1794591 0.09956602 -0.1446816 2.21081e-17 0.09956602 -0.01351375 0.1430782 0.09956602 -0.01160133 0.1429827 0.09956602 -0.01541904 0.1432688 0.09956602 -0.01731245 0.1435542 0.09956602 -0.01918929 0.1439336 0.09956602 -0.02104487 0.1444061 0.09956602 -0.02287461 0.1449705 0.09956602 -0.02467393 0.1456254 0.09956602 -0.02643837 0.1463692 0.09956602 -0.02816355 0.1472 0.09956602 -0.02984517 0.1481158 0.09956602 -0.03147905 0.1491142 0.09956602 -0.03306113 0.1501928 0.09956602 -0.03458748 0.151349 0.09956602 -0.0360543 0.1525798 0.09956602 -0.03745795 0.1538822 0.09956602 -0.03879493 0.1552529 0.09956602 -0.04006193 0.1566886 0.09956602 -0.04125579 0.1581857 0.09956602 -0.04237354 0.1597404 0.09956602 -0.04341241 0.1613489 0.09956602 -0.04436981 0.1630071 0.09956602 -0.04524336 0.1647111 0.09956602 -0.04603089 0.1664564 0.09956602 -0.04673045 0.1682388 0.09956602 -0.04734029 0.1700539 0.09956602 -0.04785889 0.1718972 0.09956602 -0.04828497 0.173764 0.09956602 -0.04861748 0.1756497 0.09956602 -0.04885557 0.1775496 0.09956602 0.1226361 2.21081e-17 0.09956602 0.0275677 0.1775496 0.09956602 0.02732961 0.1756497 0.09956602 0.02699711 0.173764 0.09956602 0.02657103 0.1718972 0.09956602 0.02605242 0.1700539 0.09956602 0.02544258 0.1682388 0.09956602 0.02474303 0.1664564 0.09956602 0.02395549 0.1647111 0.09956602 0.02308194 0.1630071 0.09956602 0.02212454 0.1613489 0.09956602 0.02108567 0.1597404 0.09956602 0.01996792 0.1581857 0.09956602 0.01877406 0.1566886 0.09956602 0.01750707 0.1552529 0.09956602 0.01617008 0.1538822 0.09956602 0.01476644 0.1525798 0.09956602 0.01329961 0.151349 0.09956602 0.01177326 0.1501928 0.09956602 0.01019118 0.1491142 0.09956602 0.008557301 0.1481158 0.09956602 0.006875682 0.1472 0.09956602 0.005150506 0.1463692 0.09956602 0.003386064 0.1456254 0.09956602 0.00158674 0.1449705 0.09956602 -0.0002429909 0.1444061 0.09956602 -0.00209858 0.1439336 0.09956602 -0.003975415 0.1435542 0.09956602 -0.005868828 0.1432688 0.09956602 -0.007774113 0.1430782 0.09956602 -0.009686533 0.1429827 0.09956602 -0.1446816 0.3389015 0.3103506 -0.1446816 0.35 0.3201032 -0.1446816 0.3389015 0.1069981 -0.1446816 7.107718e-17 0.3201032 -0.1446816 0.008573172 0.3103506 -0.1446816 0.008573172 0.1069981 -0.1296345 1.157005e-16 0.3112342 -0.1296345 7.032747e-17 0.1068922 0.1077166 7.032747e-17 0.1068922 0.08578131 1.08721e-16 0.2798012 0.06842004 1.129083e-16 0.2986593 0.07523143 1.099998e-16 0.2855604 0.06764191 1.157005e-16 0.3112342 0.1077166 1.078731e-16 0.2759825 0.1226361 7.107718e-17 0.3201032 0.09723779 1.078731e-16 0.2759825 -0.1296345 0.35 0.3112342 -0.1296345 0.35 0.1068922 0.1077166 0.35 0.1068922 0.06842004 0.35 0.2986593 0.08578131 0.35 0.2798012 0.07523143 0.35 0.2855604 0.06764191 0.35 0.3112342 0.1077166 0.35 0.2759825 0.1226361 0.35 0.3201032 0.09723779 0.35 0.2759825 0.1226361 0.3389015 0.3103506 0.1226361 0.3389015 0.1069981 0.1226361 0.008573172 0.1069981 0.1226361 0.008573172 0.3103506 0.02775853 0.1813733 -0.000433975 0.0277108 0.1794591 -0.000433975 0.0275677 0.1775496 -0.000433975 0.02732961 0.1756497 -0.000433975 0.02699711 0.173764 -0.000433975 0.02657103 0.1718972 -0.000433975 0.02605242 0.1700539 -0.000433975 0.02544258 0.1682388 -0.000433975 0.02474303 0.1664564 -0.000433975 0.02395549 0.1647111 -0.000433975 0.02308194 0.1630071 -0.000433975 0.02212454 0.1613489 -0.000433975 0.02108567 0.1597404 -0.000433975 0.01996792 0.1581857 -0.000433975 0.01877406 0.1566886 -0.000433975 0.01750707 0.1552529 -0.000433975 0.01617008 0.1538822 -0.000433975 0.01476644 0.1525798 -0.000433975 0.01329961 0.151349 -0.000433975 0.01177326 0.1501928 -0.000433975 0.01019118 0.1491142 -0.000433975 0.008557301 0.1481158 -0.000433975 0.006875682 0.1472 -0.000433975 0.005150506 0.1463692 -0.000433975 0.003386064 0.1456254 -0.000433975 0.00158674 0.1449705 -0.000433975 -0.0002429909 0.1444061 -0.000433975 -0.00209858 0.1439336 -0.000433975 -0.003975415 0.1435542 -0.000433975 -0.005868828 0.1432688 -0.000433975 -0.007774113 0.1430782 -0.000433975 -0.009686533 0.1429827 -0.000433975 -0.01160133 0.1429827 -0.000433975 -0.01351375 0.1430782 -0.000433975 -0.01541904 0.1432688 -0.000433975 -0.01731245 0.1435542 -0.000433975 -0.01918929 0.1439336 -0.000433975 -0.02104487 0.1444061 -0.000433975 -0.02287461 0.1449705 -0.000433975 -0.02467393 0.1456254 -0.000433975 -0.02643837 0.1463692 -0.000433975 -0.02816355 0.1472 -0.000433975 -0.02984517 0.1481158 -0.000433975 -0.03147905 0.1491142 -0.000433975 -0.03306113 0.1501928 -0.000433975 -0.03458748 0.151349 -0.000433975 -0.0360543 0.1525798 -0.000433975 -0.03745795 0.1538822 -0.000433975 -0.03879493 0.1552529 -0.000433975 -0.04006193 0.1566886 -0.000433975 -0.04125579 0.1581857 -0.000433975 -0.04237354 0.1597404 -0.000433975 -0.04341241 0.1613489 -0.000433975 -0.04436981 0.1630071 -0.000433975 -0.04524336 0.1647111 -0.000433975 -0.04603089 0.1664564 -0.000433975 -0.04673045 0.1682388 -0.000433975 -0.04734029 0.1700539 -0.000433975 -0.04785889 0.1718972 -0.000433975 -0.04828497 0.173764 -0.000433975 -0.04861748 0.1756497 -0.000433975 -0.04885557 0.1775496 -0.000433975 -0.04899866 0.1794591 -0.000433975 -0.0490464 0.1813733 -0.000433975 -0.04899866 0.1832875 -0.000433975 -0.04885557 0.1851969 -0.000433975 -0.04861748 0.1870968 -0.000433975 -0.04828497 0.1889826 -0.000433975 -0.04785889 0.1908493 -0.000433975 -0.04734029 0.1926926 -0.000433975 -0.04673045 0.1945077 -0.000433975 -0.04603089 0.1962901 -0.000433975 -0.04524336 0.1980355 -0.000433975 -0.04436981 0.1997394 -0.000433975 -0.04341241 0.2013977 -0.000433975 -0.04237354 0.2030061 -0.000433975 -0.04125579 0.2045608 -0.000433975 -0.04006193 0.2060579 -0.000433975 -0.03879493 0.2074936 -0.000433975 -0.03745795 0.2088643 -0.000433975 -0.0360543 0.2101667 -0.000433975 -0.03458748 0.2113975 -0.000433975 -0.03306113 0.2125537 -0.000433975 -0.03147905 0.2136323 -0.000433975 -0.02984517 0.2146308 -0.000433975 -0.02816355 0.2155465 -0.000433975 -0.02643837 0.2163773 -0.000433975 -0.02467393 0.2171211 -0.000433975 -0.02287461 0.217776 -0.000433975 -0.02104487 0.2183404 -0.000433975 -0.01918929 0.2188129 -0.000433975 -0.01731245 0.2191923 -0.000433975 -0.01541904 0.2194777 -0.000433975 -0.01351375 0.2196684 -0.000433975 -0.01160133 0.2197638 -0.000433975 -0.009686533 0.2197638 -0.000433975 -0.007774113 0.2196684 -0.000433975 -0.005868828 0.2194777 -0.000433975 -0.003975415 0.2191923 -0.000433975 -0.00209858 0.2188129 -0.000433975 -0.0002429909 0.2183404 -0.000433975 0.00158674 0.217776 -0.000433975 0.003386064 0.2171211 -0.000433975 0.005150506 0.2163773 -0.000433975 0.006875682 0.2155465 -0.000433975 0.008557301 0.2146308 -0.000433975 0.01019118 0.2136323 -0.000433975 0.01177326 0.2125537 -0.000433975 0.01329961 0.2113975 -0.000433975 0.01476644 0.2101667 -0.000433975 0.01617008 0.2088643 -0.000433975 0.01750707 0.2074936 -0.000433975 0.01877406 0.2060579 -0.000433975 0.01996792 0.2045608 -0.000433975 0.02108567 0.2030061 -0.000433975 0.02212454 0.2013977 -0.000433975 0.02308194 0.1997394 -0.000433975 0.02395549 0.1980355 -0.000433975 0.02474303 0.1962901 -0.000433975 0.02544258 0.1945077 -0.000433975 0.02605242 0.1926926 -0.000433975 0.02657103 0.1908493 -0.000433975 0.02699711 0.1889826 -0.000433975 0.02732961 0.1870968 -0.000433975 0.0275677 0.1851969 -0.000433975 0.0277108 0.1832875 -0.000433975 -0.1296345 0.008573172 0.3103506 -0.1296345 0.3389015 0.3103506 -0.1296345 0.3389015 0.1069981 -0.1296345 0.008573172 0.1069981 0.06842004 0.3389015 0.2986593 0.06769659 0.3389015 0.3103506 0.06769659 0.008573172 0.3103506 0.06842004 0.008573172 0.2986593 0.07523143 0.008573172 0.2855604 0.08578131 0.008573172 0.2798012 0.09723779 0.008573172 0.2759825 0.1077166 0.008573172 0.2759825 0.1077166 0.3389015 0.1069981 0.1077166 0.3389015 0.2759825 0.1077166 0.008573172 0.1069981 0.07523143 0.3389015 0.2855604 0.08578131 0.3389015 0.2798012 0.09723779 0.3389015 0.2759825</float_array>
          <technique_common>
            <accessor count="304" source="#cubeverts-array0-array" stride="3">
              <param type="float" name="X"/>
              <param type="float" name="Y"/>
              <param type="float" name="Z"/>
            </accessor>
          </technique_common>
        </source>
        <source id="cubenormals-array0">
          <float_array count="1848" id="cubenormals-array0-array">0 0 -1 -0 0 -1 0 0 -1 -0 0 -1 0 0 -1 -0 0 -1 0 0 -1 -0 0 -1 0 0 -1 -0 0 -1 0 0 -1 -0 0 -1 0 0 -1 -0 0 -1 0 0 -1 -0 0 -1 0 0 -1 -0 0 -1 0 0 -1 -0 0 -1 0 0 -1 -0 0 -1 0 0 -1 -0 0 -1 0 0 -1 -0 0 -1 0 0 -1 -0 0 -1 0 0 -1 -0 0 -1 0 0 -1 0 0 -1 -0 0 -1 0 0 -1 0 0 -1 0 0 -1 0 0 -1 0 0 -1 0 0 -1 0 0 -1 0 0 -1 0 0 -1 0 0 -1 0 0 -1 0 0 -1 0 0 -1 0 0 -1 0 0 -1 0 0 -1 0 0 -1 0 0 -1 0 0 -1 0 0 -1 0 0 -1 0 0 -1 0 0 -1 0 0 -1 0 0 -1 0 0 -1 0 0 -1 0 0 -1 0 0 -1 0 0 -1 0 0 -1 0 0 -1 0 0 -1 0 0 -1 0 0 -1 0 0 -1 0 0 -1 0 0 -1 0 0 -1 0 0 -1 0 0 -1 0 0 -1 0 0 -1 0 0 -1 0 0 -1 0 0 -1 0 0 -1 0 0 -1 0 0 -1 0 0 -1 0 0 -1 0 0 -1 0 0 -1 0 0 -1 0 0 -1 0 0 -1 0 0 -1 0 0 -1 0 0 -1 0 0 -1 0 0 -1 0 0 -1 0 0 -1 0 0 -1 0 0 -1 0 0 -1 0 0 -1 0 0 -1 0 0 -1 0 0 -1 0 0 -1 0 0 -1 0 0 -1 0 0 -1 0 0 -1 0 0 -1 0 0 -1 0 0 -1 0 0 -1 0 0 -1 0 0 -1 0 0 -1 0 0 -1 0 0 -1 0 0 -1 0 0 -1 0 0 -1 0 0 -1 0 0 -1 0 0 -1 0 0 -1 0 0 -1 0 0 -1 0 0 -1 0 0 -1 0 0 -1 0 0 -1 -1 0 0 -1 0 0 -1 0 0 -1 0 0 -1 0 0 -1 0 0 -1 0 0 -1 0 0 3.096455e-15 -1 2.220446e-16 3.096456e-15 -1 2.220446e-16 0 -1 6.581817e-15 0 -1 6.581817e-15 0 -1 2.220446e-16 0 -1 -5.031389e-15 0 -1 2.220446e-16 -3.122924e-15 -1 2.220446e-16 -0 -1 -8.339815e-16 -2.953353e-16 -1 -6.639701e-16 -7.750926e-16 -1 -2.252475e-16 -0 -1 -5.031389e-15 -3.122924e-15 -1 2.220446e-16 0 1 0 0 1 0 0 1 0 0 1 0 0 1 0 0 1 0 0 1 0 0 1 0 0 1 0 0 1 0 0 1 0 -0 1 0 0 1 0 1 -0 0 1 0 0 1 0 0 1 0 0 1 0 0 1 0 0 1 -0 0 1 0 0 0.9996892 -0.02493067 0 0.9996892 -0.02493067 0 0.9972038 -0.07472973 0 0.9972038 -0.07472973 0 0.9922392 -0.1243437 0 0.9848077 -0.1736484 0 0.9922392 -0.1243437 0 0.9848077 -0.1736484 0 0.9749279 -0.2225208 0 0.9749279 -0.2225208 0 0.9626241 -0.2708411 0 0.9479274 -0.3184863 0 0.9626241 -0.2708411 0 0.930874 -0.3653402 0 0.9479274 -0.3184863 0 0.930874 -0.3653402 0 0.9115053 -0.4112883 0 0.9115053 -0.4112883 0 0.8898726 -0.4562092 0 0.8898726 -0.4562092 0 0.8660254 -0.5000001 0 0.8660254 -0.5000001 0 0.8400248 -0.5425481 0 0.8400248 -0.5425481 0 0.8119388 -0.5837426 0 0.8119388 -0.5837426 0 0.7818321 -0.623489 0 0.7818321 -0.623489 0 0.7497818 -0.6616851 0 0.7497818 -0.6616851 0 0.7158673 -0.6982362 0 0.7158673 -0.6982362 0 0.6801694 -0.733055 0 0.6801694 -0.733055 0 0.6427907 -0.7660418 0 0.6038022 -0.7971343 0 0.6427907 -0.7660418 0 0.5633196 -0.826239 0 0.6038022 -0.7971343 0 0.5633196 -0.826239 0 0.521435 -0.853291 0 0.4782583 -0.8782192 0 0.521435 -0.853291 0 0.4782583 -0.8782192 0 0.4338815 -0.90097 0 0.4338815 -0.90097 0 0.3884345 -0.9214763 0 0.3884345 -0.9214763 0 0.3420234 -0.9396914 0 0.3420234 -0.9396914 0 0.2947527 -0.9555736 0 0.2467561 -0.9690776 0 0.2947527 -0.9555736 0 0.1981459 -0.9801725 0 0.2467561 -0.9690776 0 0.1981459 -0.9801725 0 0.1490418 -0.9888309 0 0.1490418 -0.9888309 0 0.09957096 -0.9950305 0 0.09957096 -0.9950305 0 0.04984527 -0.9987569 0 0.04984527 -0.9987569 0 0 -1 0 -0 -1 -0 -0.04984526 -0.9987569 0 -0.04984526 -0.9987569 -0 -0.09957098 -0.9950305 0 -0.1490417 -0.9888309 0 -0.09957098 -0.9950305 -0 -0.1490417 -0.9888309 0 -0.1981461 -0.9801725 -0 -0.1981461 -0.9801725 0 -0.2467561 -0.9690776 0 -0.2467561 -0.9690776 0 -0.2947527 -0.9555736 0 -0.2947527 -0.9555736 0 -0.3420233 -0.9396915 -0 -0.3420233 -0.9396915 0 -0.3884346 -0.9214762 -0 -0.3884346 -0.9214762 0 -0.4338814 -0.90097 -0 -0.4338814 -0.90097 0 -0.4782581 -0.8782193 -0 -0.4782581 -0.8782193 0 -0.5214352 -0.8532909 -0 -0.5214352 -0.8532909 0 -0.5633193 -0.8262392 -0 -0.5633193 -0.8262392 0 -0.6038027 -0.7971339 -0 -0.6038027 -0.7971339 0 -0.6427902 -0.7660422 -0 -0.6427902 -0.7660422 0 -0.6801694 -0.733055 -0 -0.6801694 -0.733055 0 -0.7158673 -0.6982362 0 -0.7158673 -0.6982362 0 -0.7497823 -0.6616846 0 -0.7497823 -0.6616846 -0 -0.7818321 -0.623489 0 -0.7818321 -0.623489 0 -0.8119388 -0.5837426 0 -0.8119388 -0.5837426 -0 -0.8400248 -0.5425481 0 -0.8400248 -0.5425481 -0 -0.866025 -0.5000008 0 -0.866025 -0.5000008 -0 -0.889873 -0.4562084 0 -0.9115053 -0.4112883 0 -0.889873 -0.4562084 -0 -0.9115053 -0.4112883 0 -0.9308734 -0.365342 0 -0.9308734 -0.365342 -0 -0.9479277 -0.3184854 0 -0.9479277 -0.3184854 -0 -0.9626244 -0.2708402 0 -0.9626244 -0.2708402 -0 -0.9749279 -0.2225208 0 -0.9749279 -0.2225208 -0 -0.9848076 -0.1736494 0 -0.9848076 -0.1736494 -0 -0.9922394 -0.1243427 0 -0.9922394 -0.1243427 -0 -0.9972038 -0.07472973 -0 -0.9972038 -0.07472973 0 -0.9996892 -0.02493067 -0 -0.9996892 -0.02493067 0 -0.9996892 0.02493067 0 -0.9996892 0.02493067 0 -0.9972038 0.07472973 0 -0.9972038 0.07472973 0 -0.9922394 0.1243427 0 -0.9922394 0.1243427 0 -0.9848076 0.1736494 0 -0.9848076 0.1736494 0 -0.9749279 0.2225208 0 -0.9749279 0.2225208 0 -0.9626244 0.2708402 0 -0.9626244 0.2708402 0 -0.9479277 0.3184854 0 -0.9479277 0.3184854 0 -0.9308734 0.365342 0 -0.9308734 0.365342 0 -0.9115053 0.4112883 0 -0.9115053 0.4112883 0 -0.889873 0.4562084 0 -0.889873 0.4562084 0 -0.866025 0.5000008 0 -0.866025 0.5000008 0 -0.8400248 0.5425481 0 -0.8400248 0.5425481 0 -0.8119388 0.5837426 0 -0.8119388 0.5837426 0 -0.7818321 0.623489 0 -0.7818321 0.623489 0 -0.7497823 0.6616846 0 -0.7497823 0.6616846 0 -0.7158673 0.6982362 0 -0.7158673 0.6982362 0 -0.6801694 0.733055 0 -0.6801694 0.733055 0 -0.6427902 0.7660422 0 -0.6427902 0.7660422 0 -0.6038027 0.7971339 0 -0.6038027 0.7971339 0 -0.5633193 0.8262392 0 -0.5633193 0.8262392 0 -0.5214352 0.8532909 0 -0.5214352 0.8532909 0 -0.4782581 0.8782193 0 -0.4782581 0.8782193 0 -0.4338814 0.90097 0 -0.3884346 0.9214762 0 -0.4338814 0.90097 0 -0.3884346 0.9214762 0 -0.3420233 0.9396915 0 -0.3420233 0.9396915 0 -0.2947527 0.9555736 0 -0.2947527 0.9555736 0 -0.2467561 0.9690776 0 -0.2467561 0.9690776 0 -0.1981461 0.9801725 0 -0.1981461 0.9801725 0 -0.1490417 0.9888309 0 -0.1490417 0.9888309 0 -0.09957098 0.9950305 0 -0.09957098 0.9950305 0 -0.04984526 0.9987569 0 -0.04984526 0.9987569 0 -0 1 0 0 1 0 0.04984527 0.9987569 0 0.04984527 0.9987569 0 0.09957096 0.9950305 0 0.09957096 0.9950305 0 0.1490418 0.9888309 0 0.1490418 0.9888309 0 0.1981459 0.9801725 0 0.1981459 0.9801725 0 0.2467561 0.9690776 0 0.2467561 0.9690776 0 0.2947527 0.9555736 0 0.2947527 0.9555736 0 0.3420234 0.9396914 0 0.3420234 0.9396914 0 0.3884345 0.9214763 0 0.3884345 0.9214763 0 0.4338815 0.90097 0 0.4338815 0.90097 0 0.4782583 0.8782192 0 0.4782583 0.8782192 0 0.521435 0.853291 0 0.521435 0.853291 0 0.5633196 0.826239 0 0.5633196 0.826239 0 0.6038022 0.7971343 0 0.6427907 0.7660418 -0 0.6038022 0.7971343 0 0.6427907 0.7660418 0 0.6801694 0.733055 0 0.7158673 0.6982362 -0 0.6801694 0.733055 0 0.7158673 0.6982362 0 0.7497818 0.6616851 0 0.7497818 0.6616851 0 0.7818321 0.623489 -0 0.7818321 0.623489 0 0.8119388 0.5837426 0 0.8119388 0.5837426 0 0.8400248 0.5425481 0 0.8400248 0.5425481 0 0.8660254 0.5000001 0 0.8660254 0.5000001 0 0.8898726 0.4562092 0 0.8898726 0.4562092 0 0.9115053 0.4112883 0 0.930874 0.3653402 -0 0.9115053 0.4112883 0 0.930874 0.3653402 0 0.9479274 0.3184863 0 0.9626241 0.2708411 -0 0.9479274 0.3184863 0 0.9626241 0.2708411 0 0.9749279 0.2225208 0 0.9848077 0.1736484 -0 0.9749279 0.2225208 0 0.9848077 0.1736484 0 0.9922392 0.1243437 0 0.9922392 0.1243437 0 0.9972038 0.07472973 0 0.9972038 0.07472973 0 0.9996892 0.02493067 0 0.9996892 0.02493067 0 0 -0 1 0 0 1 0 0 -1 0 0 -1 0 -1 0 0 -1 0 -0 0 1 0 0 1 0 1 0 0 1 -0 0 0 -1 -0 0 -1 -0.9980909 0 -0.06176127 -0.9980909 -8.184298e-08 -0.06176135 -0.998091 0 -0.06176127 -0.998091 1.059509e-07 -0.06176135 -0.9980909 0 -0.06176237 -0.9980909 0 -0.06176236 -0.8872172 0 -0.461352 -0.8872172 0 -0.461352 -0.4791538 0 -0.877731 -0.4791538 0 -0.877731 -0.3162249 0 -0.9486843 -0.3162249 0 -0.9486843 0 0 -1 0 0 -1 -1 0 0 -1 0 0 -1 0 0 -1 0 0 -1 0 0 -1 0 0 -0 0 1 0 0 1 1 -0 0 1 0 0 1 0 0 1 0 0 1 0 0 1 0 0 1 0 0 1 -0 0 -0.8872172 0 -0.461352 -0.8872172 0 -0.461352 -0.4791538 0 -0.877731 -0.4791538 0 -0.877731 -0.3162249 0 -0.9486842 -0.3162249 0 -0.9486842 0 0 -1 -0 0 -1 0 0 -1 0 0 -1 0 1 0 0 1 0 -0 1 0 0 1 -0 -0 1 -0 0 1 -0 0 1 -0 -0 0 1 0 0 1 0 -1 0 0 -1 0 0 -1 0 0 -1 0 0 -1 0 0 -1 0 0 -1 0 0 0 -1 0 0 -1 0 0 -1 0 0 -1 0 0 -1 0 0 -1 0 0 -1 0 0 -1 0 0 -1 0 0 -1 0 0 -1 0 0 -1 0 0 -1 0 0 -1 0 0 -1 0 0 -1 0 0 -1 0 0 -1 0 0 -1 0 0 -1 0 0 -1 0 0 -1 0 0 -1 0 0 -1 0 0 -1 0 0 -1 0 0 -1 0 -0 -1 0 -0 -1 0 0 -1 0 0 -1 0 0 -1 0 0 -1 0 -0 -1 0 0 -1 0 0 -1 0 -0 -1 0 -0 -1 0 0 -1 0 0 -1 0 0 -1 0 0 -1 0 -0 -1 0 -0 -1 0 0 -1 0 0 -1 0 -0 -1 0 -0 -1 0 -0 -1 0 0 -1 0 0 -1 0 0 -1 0 0 -1 0 -0 -1 0 -0 -1 0 0 -1 0 0 -1 0 0 -1 0 0 -1 0 -0 -1 0 -0 -1 0 0 -1 0 0 -1 0 0 -1 0 -0 -1 0 0 -1 0 0 -1 0 -0 -1 0 0 -1 0 0 -1 0 -0 -1 0 0 -1 0 0 -1 0 -0 -1 0 -0 -1 0 -0 -1 0 -0 -1 0 -0 -1 0 0 -1 0 0 -1 0 0 -1 0 0 -1 0 0 -1 0 0 -1 0 0 -1 0 -0 -1 0 -0 -1 0 -0 -1 0 -0 -1 0 0 -1 0 0 -1 0 0 -1 0 0 -1 -0 -0 -1 -0 -0 -1 0 0 -1 0 0 -1 0 0 -1 0 0 -1 0 0 -1 0 0 -1 -0 -0 -1 -0 -0 -1 0 0 -1 0 0 -1 -0 -0 -1 -0 -0 -1 0 0 -1 0 0 -1 0 0 -1 -0 -0 -1 0 0 -1 0 0 -1 -0 -0 -1 0 0 -1 -0 -0 -1 0 0 -1 -0 -0 -1 -0 -0 -1 0 0 -1 0 0 -1 0 0 -1 -0 -0 -1 0 0 -1</float_array>
          <technique_common>
            <accessor count="616" source="#cubenormals-array0-array" stride="3">
              <param type="float" name="X"/>
              <param type="float" name="Y"/>
              <param type="float" name="Z"/>
            </accessor>
          </technique_common>
        </source>
        <vertices id="cubeverts-array0-vertices">
          <input semantic="POSITION" source="#cubeverts-array0"/>
        </vertices>
        <triangles count="616" material="ref_krytn_tray_body_shape001">
          <input offset="0" semantic="VERTEX" source="#cubeverts-array0-vertices"/>
          <input offset="1" semantic="NORMAL" source="#cubenormals-array0"/>
          <p>0 0 1 0 2 0 3 1 2 1 1 1 4 2 1 2 0 2 5 3 3 3 1 3 6 4 1 4 4 4 7 5 5 5 1 5 8 6 1 6 6 6 9 7 7 7 1 7 10 8 1 8 8 8 11 9 9 9 1 9 12 10 1 10 10 10 13 11 11 11 1 11 14 12 1 12 12 12 15 13 13 13 1 13 16 14 1 14 14 14 17 15 15 15 1 15 18 16 1 16 16 16 19 17 17 17 1 17 20 18 1 18 18 18 21 19 19 19 1 19 22 20 1 20 20 20 23 21 21 21 1 21 24 22 1 22 22 22 25 23 23 23 1 23 26 24 1 24 24 24 27 25 25 25 1 25 28 26 1 26 26 26 29 27 27 27 1 27 30 28 1 28 28 28 31 29 29 29 1 29 32 30 1 30 30 30 33 31 1 31 32 31 34 32 31 32 1 32 34 33 35 33 31 33 34 34 36 34 35 34 37 35 36 35 34 35 38 36 37 36 34 36 39 37 38 37 34 37 40 38 39 38 34 38 41 39 40 39 34 39 42 40 41 40 34 40 43 41 42 41 34 41 44 42 43 42 34 42 45 43 44 43 34 43 46 44 45 44 34 44 47 45 46 45 34 45 48 46 47 46 34 46 49 47 48 47 34 47 50 48 49 48 34 48 51 49 50 49 34 49 52 50 51 50 34 50 53 51 52 51 34 51 54 52 53 52 34 52 55 53 54 53 34 53 56 54 55 54 34 54 57 55 56 55 34 55 58 56 57 56 34 56 59 57 58 57 34 57 60 58 59 58 34 58 61 59 60 59 34 59 62 60 61 60 34 60 63 61 62 61 34 61 64 62 63 62 34 62 65 63 64 63 34 63 66 64 65 64 34 64 67 65 66 65 34 65 68 66 1 66 33 66 68 67 69 67 70 67 68 68 71 68 69 68 68 69 72 69 71 69 68 70 73 70 72 70 68 71 74 71 73 71 68 72 75 72 74 72 68 73 76 73 75 73 68 74 77 74 76 74 68 75 78 75 77 75 68 76 79 76 78 76 68 77 80 77 79 77 68 78 81 78 80 78 68 79 82 79 81 79 68 80 83 80 82 80 68 81 84 81 83 81 68 82 85 82 84 82 68 83 86 83 85 83 68 84 87 84 86 84 68 85 88 85 87 85 68 86 89 86 88 86 68 87 90 87 89 87 68 88 91 88 90 88 68 89 92 89 91 89 68 90 93 90 92 90 68 91 94 91 93 91 68 92 95 92 94 92 68 93 96 93 95 93 68 94 97 94 96 94 68 95 98 95 97 95 68 96 33 96 98 96 99 97 100 97 67 97 99 98 101 98 100 98 99 99 102 99 101 99 99 100 103 100 102 100 99 101 104 101 103 101 99 102 105 102 104 102 99 103 106 103 105 103 99 104 107 104 106 104 99 105 108 105 107 105 99 106 109 106 108 106 99 107 110 107 109 107 99 108 111 108 110 108 99 109 112 109 111 109 99 110 113 110 112 110 99 111 114 111 113 111 99 112 115 112 114 112 99 113 116 113 115 113 99 114 117 114 116 114 99 115 118 115 117 115 99 116 119 116 118 116 99 117 120 117 119 117 99 118 67 118 34 118 99 119 121 119 120 119 99 120 122 120 121 120 99 121 123 121 122 121 99 122 124 122 123 122 99 123 125 123 124 123 99 124 126 124 125 124 99 125 127 125 126 125 99 126 128 126 127 126 99 127 129 127 128 127 99 128 70 128 129 128 99 129 68 129 70 129 1 130 130 130 131 130 132 131 130 131 1 131 133 132 131 132 130 132 134 133 133 133 130 133 68 134 134 134 135 134 68 135 135 135 132 135 68 136 132 136 1 136 68 137 133 137 134 137 68 138 136 138 133 138 137 139 136 139 68 139 137 140 99 140 138 140 68 141 99 141 137 141 139 142 140 142 141 142 136 143 142 143 133 143 139 144 142 144 140 144 99 145 143 145 138 145 143 146 144 146 145 146 145 147 144 147 139 147 139 148 144 148 142 148 144 149 133 149 142 149 99 150 144 150 143 150 146 151 1 151 131 151 146 152 147 152 1 152 34 153 147 153 148 153 34 154 1 154 147 154 149 155 150 155 151 155 152 156 146 156 131 156 152 157 150 157 149 157 153 158 34 158 148 158 154 159 153 159 155 159 154 160 155 160 150 160 154 161 150 161 152 161 131 162 154 162 152 162 154 163 34 163 153 163 156 164 34 164 154 164 156 165 157 165 34 165 99 166 157 166 158 166 99 167 34 167 157 167 159 168 99 168 158 168 144 169 159 169 156 169 144 170 156 170 154 170 144 171 99 171 159 171 66 172 67 172 160 172 160 173 67 173 161 173 161 174 100 174 162 174 67 175 100 175 161 175 162 176 101 176 163 176 163 177 101 177 164 177 100 178 101 178 162 178 101 179 102 179 164 179 164 180 103 180 165 180 102 181 103 181 164 181 165 182 104 182 166 182 166 183 104 183 167 183 103 184 104 184 165 184 167 185 105 185 168 185 104 186 105 186 167 186 105 187 106 187 168 187 168 188 107 188 169 188 106 189 107 189 168 189 169 190 108 190 170 190 107 191 108 191 169 191 108 192 109 192 170 192 170 193 109 193 171 193 109 194 110 194 171 194 171 195 110 195 172 195 110 196 111 196 172 196 172 197 111 197 173 197 111 198 112 198 173 198 173 199 112 199 174 199 174 200 113 200 175 200 112 201 113 201 174 201 175 202 114 202 176 202 113 203 114 203 175 203 176 204 115 204 177 204 114 205 115 205 176 205 177 206 116 206 178 206 178 207 116 207 179 207 115 208 116 208 177 208 179 209 117 209 180 209 116 210 117 210 179 210 117 211 118 211 180 211 180 212 119 212 181 212 181 213 119 213 182 213 118 214 119 214 180 214 119 215 120 215 182 215 182 216 121 216 183 216 120 217 121 217 182 217 183 218 122 218 184 218 121 219 122 219 183 219 184 220 123 220 185 220 122 221 123 221 184 221 185 222 124 222 186 222 186 223 124 223 187 223 123 224 124 224 185 224 187 225 125 225 188 225 124 226 125 226 187 226 125 227 126 227 188 227 188 228 127 228 189 228 126 229 127 229 188 229 189 230 128 230 190 230 127 231 128 231 189 231 190 232 129 232 191 232 128 233 129 233 190 233 191 234 70 234 192 234 129 235 70 235 191 235 192 236 69 236 193 236 70 237 69 237 192 237 193 238 71 238 194 238 194 239 71 239 195 239 69 240 71 240 193 240 71 241 72 241 195 241 72 242 73 242 195 242 195 243 73 243 196 243 196 244 73 244 197 244 73 245 74 245 197 245 197 246 74 246 198 246 74 247 75 247 198 247 75 248 76 248 198 248 198 249 76 249 199 249 76 250 77 250 199 250 199 251 77 251 200 251 77 252 78 252 200 252 200 253 78 253 201 253 78 254 79 254 201 254 201 255 79 255 202 255 79 256 80 256 202 256 202 257 80 257 203 257 80 258 81 258 203 258 203 259 81 259 204 259 81 260 82 260 204 260 204 261 82 261 205 261 82 262 83 262 205 262 205 263 83 263 206 263 83 264 84 264 206 264 206 265 84 265 207 265 207 266 84 266 208 266 84 267 85 267 208 267 208 268 86 268 209 268 85 269 86 269 208 269 209 270 86 270 210 270 86 271 87 271 210 271 210 272 88 272 211 272 87 273 88 273 210 273 211 274 89 274 212 274 88 275 89 275 211 275 212 276 90 276 213 276 89 277 90 277 212 277 213 278 91 278 214 278 214 279 91 279 215 279 90 280 91 280 213 280 91 281 92 281 215 281 215 282 93 282 216 282 92 283 93 283 215 283 216 284 94 284 217 284 93 285 94 285 216 285 217 286 95 286 218 286 94 287 95 287 217 287 218 288 96 288 219 288 95 289 96 289 218 289 219 290 97 290 220 290 96 291 97 291 219 291 220 292 98 292 221 292 97 293 98 293 220 293 98 294 33 294 221 294 221 295 33 295 222 295 33 296 32 296 222 296 222 297 32 297 223 297 32 298 30 298 223 298 223 299 30 299 224 299 30 300 28 300 224 300 224 301 28 301 225 301 28 302 26 302 225 302 225 303 26 303 226 303 26 304 24 304 226 304 226 305 24 305 227 305 24 306 22 306 227 306 227 307 22 307 228 307 22 308 20 308 228 308 228 309 20 309 229 309 20 310 18 310 229 310 229 311 18 311 230 311 18 312 16 312 230 312 230 313 16 313 231 313 16 314 14 314 231 314 231 315 14 315 232 315 14 316 12 316 232 316 232 317 12 317 233 317 12 318 10 318 233 318 233 319 10 319 234 319 234 320 10 320 235 320 10 321 8 321 235 321 8 322 6 322 235 322 235 323 6 323 236 323 6 324 4 324 236 324 236 325 4 325 237 325 4 326 0 326 237 326 237 327 0 327 238 327 0 328 2 328 238 328 238 329 2 329 239 329 2 330 3 330 239 330 239 331 3 331 240 331 3 332 5 332 240 332 240 333 5 333 241 333 5 334 7 334 241 334 241 335 7 335 242 335 242 336 7 336 243 336 7 337 9 337 243 337 243 338 11 338 244 338 9 339 11 339 243 339 244 340 13 340 245 340 11 341 13 341 244 341 245 342 15 342 246 342 246 343 15 343 247 343 13 344 15 344 245 344 15 345 17 345 247 345 17 346 19 346 247 346 247 347 19 347 248 347 19 348 21 348 248 348 248 349 21 349 249 349 21 350 23 350 249 350 249 351 23 351 250 351 23 352 25 352 250 352 250 353 25 353 251 353 25 354 27 354 251 354 251 355 27 355 252 355 27 356 29 356 252 356 252 357 29 357 253 357 253 358 29 358 254 358 29 359 31 359 254 359 31 360 35 360 254 360 254 361 35 361 255 361 35 362 36 362 255 362 255 363 36 363 256 363 36 364 37 364 256 364 256 365 37 365 257 365 37 366 38 366 257 366 257 367 38 367 258 367 38 368 39 368 258 368 258 369 39 369 259 369 259 370 40 370 260 370 39 371 40 371 259 371 260 372 41 372 261 372 40 373 41 373 260 373 261 374 42 374 262 374 41 375 42 375 261 375 262 376 43 376 263 376 42 377 43 377 262 377 263 378 44 378 264 378 43 379 44 379 263 379 264 380 45 380 265 380 44 381 45 381 264 381 265 382 46 382 266 382 45 383 46 383 265 383 266 384 47 384 267 384 46 385 47 385 266 385 267 386 48 386 268 386 268 387 48 387 269 387 47 388 48 388 267 388 48 389 49 389 269 389 269 390 50 390 270 390 270 391 50 391 271 391 49 392 50 392 269 392 50 393 51 393 271 393 51 394 52 394 271 394 271 395 52 395 272 395 272 396 52 396 273 396 52 397 53 397 273 397 53 398 54 398 273 398 273 399 54 399 274 399 54 400 55 400 274 400 274 401 55 401 275 401 275 402 56 402 276 402 55 403 56 403 275 403 276 404 57 404 277 404 56 405 57 405 276 405 277 406 58 406 278 406 278 407 58 407 279 407 57 408 58 408 277 408 58 409 59 409 279 409 279 410 60 410 280 410 280 411 60 411 281 411 59 412 60 412 279 412 60 413 61 413 281 413 281 414 62 414 282 414 282 415 62 415 283 415 61 416 62 416 281 416 62 417 63 417 283 417 283 418 64 418 284 418 63 419 64 419 283 419 284 420 65 420 285 420 64 421 65 421 284 421 285 422 66 422 160 422 65 423 66 423 285 423 144 424 154 424 131 424 133 425 144 425 131 425 134 426 130 426 286 426 286 427 130 427 287 427 130 428 288 428 287 428 130 429 132 429 288 429 132 430 135 430 288 430 288 431 135 431 289 431 135 432 134 432 289 432 289 433 134 433 286 433 142 434 136 434 152 434 152 435 136 435 146 435 290 436 291 436 149 436 149 437 291 437 152 437 140 438 292 438 293 438 140 439 142 439 292 439 142 440 152 440 291 440 142 441 291 441 292 441 141 442 293 442 294 442 141 443 140 443 293 443 139 444 294 444 295 444 139 445 141 445 294 445 145 446 295 446 296 446 145 447 139 447 295 447 143 448 296 448 297 448 143 449 145 449 296 449 298 450 153 450 148 450 298 451 299 451 153 451 300 452 143 452 297 452 138 453 143 453 300 453 148 454 138 454 300 454 148 455 300 455 298 455 147 456 137 456 148 456 137 457 138 457 148 457 287 458 147 458 146 458 287 459 288 459 147 459 286 460 137 460 289 460 136 461 137 461 286 461 146 462 136 462 287 462 287 463 136 463 286 463 137 464 147 464 289 464 289 465 147 465 288 465 301 466 149 466 151 466 301 467 290 467 149 467 302 468 151 468 150 468 302 469 301 469 151 469 303 470 150 470 155 470 303 471 302 471 150 471 299 472 303 472 153 472 153 473 303 473 155 473 292 474 291 474 159 474 159 475 291 475 156 475 300 476 297 476 158 476 296 477 159 477 297 477 297 478 159 478 158 478 296 479 295 479 159 479 294 480 293 480 295 480 295 481 293 481 159 481 293 482 292 482 159 482 298 483 300 483 157 483 157 484 300 484 158 484 156 485 303 485 299 485 291 486 290 486 156 486 156 487 302 487 303 487 290 488 302 488 156 488 290 489 301 489 302 489 299 490 157 490 156 490 299 491 298 491 157 491 208 492 206 492 207 492 208 493 209 493 206 493 210 494 211 494 209 494 205 495 203 495 204 495 206 496 203 496 205 496 203 497 201 497 202 497 206 498 201 498 203 498 201 499 199 499 200 499 209 500 198 500 206 500 211 501 198 501 209 501 206 502 198 502 201 502 201 503 198 503 199 503 214 504 217 504 213 504 215 505 217 505 214 505 216 506 217 506 215 506 211 507 218 507 198 507 212 508 218 508 211 508 213 509 218 509 212 509 217 510 218 510 213 510 197 511 195 511 196 511 219 512 221 512 218 512 220 513 221 513 219 513 221 514 222 514 218 514 194 515 192 515 193 515 195 516 192 516 194 516 197 517 192 517 195 517 223 518 226 518 222 518 224 519 226 519 223 519 225 520 226 520 224 520 222 521 226 521 218 521 189 522 187 522 188 522 190 523 187 523 189 523 191 524 187 524 190 524 227 525 228 525 226 525 191 526 186 526 187 526 186 527 184 527 185 527 229 528 231 528 228 528 230 529 231 529 229 529 186 530 182 530 184 530 184 531 182 531 183 531 182 532 180 532 181 532 226 533 235 533 218 533 228 534 235 534 226 534 231 535 235 535 228 535 198 536 235 536 197 536 218 537 235 537 198 537 232 538 235 538 231 538 233 539 235 539 232 539 234 540 235 540 233 540 197 541 235 541 192 541 182 542 179 542 180 542 179 543 177 543 178 543 235 544 238 544 192 544 236 545 238 545 235 545 237 546 238 546 236 546 179 547 176 547 177 547 182 548 175 548 179 548 179 549 175 549 176 549 238 550 241 550 192 550 239 551 241 551 238 551 240 552 241 552 239 552 175 553 173 553 174 553 182 554 173 554 175 554 182 555 172 555 173 555 242 556 243 556 241 556 192 557 244 557 191 557 241 558 244 558 192 558 243 559 244 559 241 559 172 560 170 560 171 560 182 561 170 561 172 561 245 562 246 562 244 562 168 563 166 563 167 563 169 564 166 564 168 564 246 565 250 565 244 565 247 566 250 566 246 566 248 567 250 567 247 567 249 568 250 568 248 568 250 569 251 569 244 569 164 570 162 570 163 570 165 571 161 571 164 571 166 572 161 572 165 572 164 573 161 573 162 573 170 574 161 574 169 574 169 575 161 575 166 575 244 576 255 576 191 576 251 577 255 577 244 577 252 578 255 578 251 578 253 579 255 579 252 579 254 580 255 580 253 580 161 581 285 581 160 581 182 582 285 582 170 582 170 583 285 583 161 583 285 584 283 584 284 584 256 585 258 585 255 585 257 586 258 586 256 586 283 587 281 587 282 587 285 588 281 588 283 588 182 589 260 589 285 589 191 590 260 590 186 590 255 591 260 591 191 591 186 592 260 592 182 592 258 593 260 593 255 593 259 594 260 594 258 594 285 595 280 595 281 595 280 596 278 596 279 596 261 597 263 597 260 597 262 598 263 598 261 598 260 599 263 599 285 599 285 600 277 600 280 600 280 601 277 601 278 601 264 602 265 602 263 602 277 603 275 603 276 603 285 604 275 604 277 604 265 605 266 605 263 605 285 606 274 606 275 606 266 607 267 607 263 607 285 608 273 608 274 608 267 609 268 609 263 609 268 610 269 610 263 610 273 611 271 611 272 611 285 612 271 612 273 612 263 613 270 613 285 613 269 614 270 614 263 614 285 615 270 615 271 615</p>
        </triangles>
      </mesh>
    </geometry>
  </library_geometries>
  <library_materials>
    <material id="mat_krytn_tray_body_shape001" name="krytn_tray_body_shape001">
      <instance_effect url="#effect_krytn_tray_body_shape001"/>
    </material>
  </library_materials>
  <library_visual_scenes>
    <visual_scene id="myscene">
      <node id="node0" name="node0">
        <instance_geometry url="#geometry0">
          <bind_material>
            <technique_common>
              <instance_material symbol="ref_krytn_tray_body_shape001" target="#mat_krytn_tray_body_shape001"/>
            </technique_common>
          </bind_material>
        </instance_geometry>
      </node>
    </visual_scene>
  </library_visual_scenes>
  <scene>
    <instance_visual_scene url="#myscene"/>
  </scene>
</COLLADA>
