<COLLADA xmlns="http://www.collada.org/2005/11/COLLADASchema" version="1.4.1">
  <asset>
    <contributor/>
    <created>2024-12-27T02:58:58.195577</created>
    <modified>2024-12-27T02:58:58.195579</modified>
    <unit name="meter" meter="1.0"/>
    <up_axis>Z_UP</up_axis>
  </asset>
  <library_effects>
    <effect id="effect_base_link_body_shape003" name="effect_base_link_body_shape003">
      <profile_COMMON>
        <technique sid="common">
          <phong>
            <emission>
              <color>0.0 0.0 0.0 1.0</color>
            </emission>
            <ambient>
              <color>0.0 0.0 0.0 1.0</color>
            </ambient>
            <diffuse>
              <color>0.800000011920929 0.800000011920929 0.9019610285758972 1.0</color>
            </diffuse>
            <specular>
              <color>1 1 1 1.0</color>
            </specular>
            <shininess>
              <float>0.0</float>
            </shininess>
            <reflective>
              <color>0.0 0.0 0.0 1.0</color>
            </reflective>
            <reflectivity>
              <float>0.0</float>
            </reflectivity>
            <transparent>
              <color>0.0 0.0 0.0 1.0</color>
            </transparent>
            <transparency>
              <float>1.0</float>
            </transparency>
          </phong>
        </technique>
        <extra>
          <technique profile="GOOGLEEARTH">
            <double_sided>0</double_sided>
          </technique>
        </extra>
      </profile_COMMON>
    </effect>
  </library_effects>
  <library_geometries>
    <geometry id="geometry0" name="base_link_body_shape003">
      <mesh>
        <source id="cubeverts-array0">
          <float_array count="801" id="cubeverts-array0-array">0.05 0 0.04 0.05 0 0 0.04995264 0.002175689 0.04 0.04993785 0.002492294 0 0.04981065 0.004347256 0.04 0.04975154 0.004978392 0 0.04957431 0.006510589 0.04 0.04944154 0.007452113 0 0.04924405 0.008661588 0.04 0.04900863 0.009907308 0 0.04882051 0.01079618 0.04 0.04845387 0.01233787 0 0.04830449 0.01291032 0.04 0.04777864 0.01473776 0 0.04769696 0.015 0.04 0.04698463 0.01710101 0 0.04689372 0.01734875 0.04 0.04607381 0.01942174 0 0.0459749 0.01965474 0.04 0.04504844 0.02169419 0 0.04494276 0.02191228 0.04 0.04391108 0.0239127 0 0.04379985 0.02411582 0.04 0.04266454 0.02607176 0 0.04254899 0.02625992 0.04 0.04131194 0.028166 0 0.04119326 0.0283393 0.04 0.03985662 0.03019022 0 0.03973599 0.03034882 0.04 0.03830222 0.03213938 0 0.03818079 0.03228355 0.04 0.03665259 0.03400864 0 0.03653148 0.0341387 0.04 0.03491184 0.03579334 0 0.03479213 0.03590972 0.04 0.03308429 0.03748906 0 0.03296703 0.03759222 0.04 0.03117449 0.03909158 0 0.03106067 0.03918207 0.04 0.02918718 0.0405969 0 0.02907776 0.04067535 0.04 0.02712731 0.0420013 0 0.02702318 0.04206837 0.04 0.025 0.04330127 0 0.02490199 0.04335771 0.04 0.02281053 0.04449359 0 0.02271943 0.04454018 0.04 0.02056436 0.04557529 0 0.02048087 0.04561287 0.04 0.01826705 0.04654369 0 0.01819183 0.04657314 0.04 0.01592433 0.04739637 0 0.01585795 0.04741862 0.04 0.01354202 0.04813121 0 0.01348499 0.04814722 0.04 0.01112605 0.0487464 0 0.01107879 0.04875716 0.04 0.008682409 0.04924039 0 0.00864528 0.04924692 0.04 0.006217185 0.04961196 0 0.006190465 0.0496153 0.04 0.003736505 0.04986019 0 0.003720393 0.04986139 0.04 0.001246535 0.04998446 0 0.001241151 0.04998459 0.04 -0.001241151 0.04998459 0.04 -0.001246535 0.04998446 0 -0.003720393 0.04986139 0.04 -0.003736505 0.04986019 0 -0.006190465 0.0496153 0.04 -0.006217185 0.04961196 0 -0.00864528 0.04924692 0.04 -0.008682409 0.04924039 0 -0.01107879 0.04875716 0.04 -0.01112605 0.0487464 0 -0.01348499 0.04814722 0.04 -0.01354202 0.04813121 0 -0.01585795 0.04741862 0.04 -0.01592433 0.04739637 0 -0.01819183 0.04657314 0.04 -0.01826705 0.04654369 0 -0.02048087 0.04561287 0.04 -0.02056436 0.04557529 0 -0.02271943 0.04454018 0.04 -0.02281053 0.04449359 0 -0.02490199 0.04335771 0.04 -0.025 0.04330127 0 -0.02702318 0.04206837 0.04 -0.02712731 0.0420013 0 -0.02907776 0.04067535 0.04 -0.02918718 0.0405969 0 -0.03106067 0.03918207 0.04 -0.03117449 0.03909158 0 -0.03296703 0.03759222 0.04 -0.03308429 0.03748906 0 -0.03479213 0.03590972 0.04 -0.03491184 0.03579334 0 -0.03653148 0.0341387 0.04 -0.03665259 0.03400864 0 -0.03818079 0.03228355 0.04 -0.03830222 0.03213938 0 -0.03973599 0.03034882 0.04 -0.03985662 0.03019022 0 -0.04119326 0.0283393 0.04 -0.04131194 0.028166 0 -0.04254899 0.02625992 0.04 -0.04266454 0.02607176 0 -0.04379985 0.02411582 0.04 -0.04391108 0.0239127 0 -0.04494276 0.02191228 0.04 -0.04504844 0.02169419 0 -0.0459749 0.01965474 0.04 -0.04607381 0.01942174 0 -0.04689372 0.01734875 0.04 -0.04698463 0.01710101 0 -0.04769696 0.015 0.04 -0.04777864 0.01473776 0 -0.04834745 0.01274851 0.04 -0.04845387 0.01233787 0 -0.04889172 0.01046901 0.04 -0.04900863 0.009907308 0 -0.04932857 0.008166512 0.04 -0.04944154 0.007452113 0 -0.04965706 0.005846072 0.04 -0.04975154 0.004978392 0 -0.04987645 0.003512788 0.04 -0.04993785 0.002492294 0 -0.04998627 0.001171788 0.04 -0.05 -1.715124e-16 0 -0.04998627 -0.001171788 0.04 -0.04993785 -0.002492294 0 -0.04987645 -0.003512788 0.04 -0.04975154 -0.004978392 0 -0.04965706 -0.005846072 0.04 -0.04944154 -0.007452113 0 -0.04932857 -0.008166512 0.04 -0.04900863 -0.009907308 0 -0.04889172 -0.01046901 0.04 -0.04845387 -0.01233787 0 -0.04834745 -0.01274851 0.04 -0.04777864 -0.01473776 0 -0.04769696 -0.015 0.04 -0.04698463 -0.01710101 0 -0.04689372 -0.01734875 0.04 -0.04607381 -0.01942174 0 -0.0459749 -0.01965474 0.04 -0.04504844 -0.02169419 0 -0.04494276 -0.02191228 0.04 -0.04391108 -0.0239127 0 -0.04379985 -0.02411582 0.04 -0.04266454 -0.02607176 0 -0.04254899 -0.02625992 0.04 -0.04131194 -0.028166 0 -0.04119326 -0.0283393 0.04 -0.03985662 -0.03019022 0 -0.03973599 -0.03034882 0.04 -0.03830222 -0.03213938 0 -0.03818079 -0.03228355 0.04 -0.03665259 -0.03400864 0 -0.03653148 -0.0341387 0.04 -0.03491184 -0.03579334 0 -0.03479213 -0.03590972 0.04 -0.03308429 -0.03748906 0 -0.03296703 -0.03759222 0.04 -0.03117449 -0.03909158 0 -0.03106067 -0.03918207 0.04 -0.02918718 -0.0405969 0 -0.02907776 -0.04067535 0.04 -0.02712731 -0.0420013 0 -0.02702318 -0.04206837 0.04 -0.025 -0.04330127 0 -0.02490199 -0.04335771 0.04 -0.02281053 -0.04449359 0 -0.02271943 -0.04454018 0.04 -0.02056436 -0.04557529 0 -0.02048087 -0.04561287 0.04 -0.01826705 -0.04654369 0 -0.01819183 -0.04657314 0.04 -0.01592433 -0.04739637 0 -0.01585795 -0.04741862 0.04 -0.01354202 -0.04813121 0 -0.01348499 -0.04814722 0.04 -0.01112605 -0.0487464 0 -0.01107879 -0.04875716 0.04 -0.008682409 -0.04924039 0 -0.00864528 -0.04924692 0.04 -0.006217185 -0.04961196 0 -0.006190465 -0.0496153 0.04 -0.003736505 -0.04986019 0 -0.003720393 -0.04986139 0.04 -0.001246535 -0.04998446 0 -0.001241151 -0.04998459 0.04 0.001246535 -0.04998446 0 0.001241151 -0.04998459 0.04 0.003720393 -0.04986139 0.04 0.003736505 -0.04986019 0 0.006190465 -0.0496153 0.04 0.006217185 -0.04961196 0 0.00864528 -0.04924692 0.04 0.008682409 -0.04924039 0 0.01107879 -0.04875716 0.04 0.01112605 -0.0487464 0 0.01348499 -0.04814722 0.04 0.01354202 -0.04813121 0 0.01585795 -0.04741862 0.04 0.01592433 -0.04739637 0 0.01819183 -0.04657314 0.04 0.01826705 -0.04654369 0 0.02048087 -0.04561287 0.04 0.02056436 -0.04557529 0 0.02271943 -0.04454018 0.04 0.02281053 -0.04449359 0 0.02490199 -0.04335771 0.04 0.025 -0.04330127 0 0.02702318 -0.04206837 0.04 0.02712731 -0.0420013 0 0.02907776 -0.04067535 0.04 0.02918718 -0.0405969 0 0.03106067 -0.03918207 0.04 0.03117449 -0.03909158 0 0.03296703 -0.03759222 0.04 0.03308429 -0.03748906 0 0.03479213 -0.03590972 0.04 0.03491184 -0.03579334 0 0.03653148 -0.0341387 0.04 0.03665259 -0.03400864 0 0.03818079 -0.03228355 0.04 0.03830222 -0.03213938 0 0.03973599 -0.03034882 0.04 0.03985662 -0.03019022 0 0.04119326 -0.0283393 0.04 0.04131194 -0.028166 0 0.04254899 -0.02625992 0.04 0.04266454 -0.02607176 0 0.04379985 -0.02411582 0.04 0.04391108 -0.0239127 0 0.04494276 -0.02191228 0.04 0.04504844 -0.02169419 0 0.0459749 -0.01965474 0.04 0.04607381 -0.01942174 0 0.04689372 -0.01734875 0.04 0.04698463 -0.01710101 0 0.04769696 -0.015 0.04 0.04777864 -0.01473776 0 0.04830449 -0.01291032 0.04 0.04845387 -0.01233787 0 0.04882051 -0.01079618 0.04 0.04900863 -0.009907308 0 0.04924405 -0.008661588 0.04 0.04944154 -0.007452113 0 0.04957431 -0.006510589 0.04 0.04975154 -0.004978392 0 0.04981065 -0.004347256 0.04 0.04993785 -0.002492294 0 0.04995264 -0.002175689 0.04 0.05 -0.015 0.04 -0.07 -0.015 0.04 -0.07 0.015 0.04 0.05 0.015 0.04 -0.07 0.015 0.06 -0.07 -0.015 0.06 0.03 -0.015 0.06 0.03 0.015 0.06 0.03 0.015 0.14 0.03 -0.015 0.14 0.05 0.015 0.14 0.05 -0.015 0.14</float_array>
          <technique_common>
            <accessor count="267" source="#cubeverts-array0-array" stride="3">
              <param type="float" name="X"/>
              <param type="float" name="Y"/>
              <param type="float" name="Z"/>
            </accessor>
          </technique_common>
        </source>
        <source id="cubenormals-array0">
          <float_array count="1590" id="cubenormals-array0-array">0.9997632 0.02176242 0 0.9978693 0.06524519 0.0001473775 0.9996892 0.02493026 -0.0001723936 0.9940851 0.1086035 0.0002444217 0.9972037 0.07473111 -0.0002946391 0.9884176 0.1517584 0.0002912886 0.9922392 0.1243437 -0.0003666866 0.9808782 0.1946225 0.0002879791 0.9848078 0.1736473 -0.0003883837 0.97148 0.2371217 0.0002343966 0.9749278 0.2225209 -0.0003599556 0.960242 0.279169 0.0001305797 0.9626242 0.2708406 -0.0002812299 0.9461982 0.3235875 0.000146363 0.9479272 0.3184869 -0.0001523368 0.9289727 0.3701482 0.000141036 0.9308738 0.3653409 -0.0001470678 0.9094565 0.4157991 0.0001357197 0.9115059 0.4112872 -0.0001417908 0.8877 0.4604224 0.0001303028 0.889872 0.4562103 -0.0001363658 0.8660251 0.5000005 -0.0001309471 0.8637542 0.5039133 0.0001248423 0.8400261 0.542546 -0.000125435 0.8376809 0.5461599 0.000119303 0.8119377 0.583744 -0.0001199069 0.8095415 0.5870628 0.0001137368 0.7818321 0.6234891 -0.0001142642 0.7794083 0.6265162 0.0001081253 0.7497804 0.6616868 -0.0001085871 0.7473527 0.6644276 0.000102365 0.7158676 0.698236 -0.0001028991 0.7134563 0.7006997 9.665e-05 0.6801726 0.7330521 -9.708799e-05 0.6777996 0.7352467 9.088005e-05 0.6427878 0.7660443 -9.118988e-05 0.640475 0.7679791 8.498036e-05 0.6038042 0.7971327 -8.532278e-05 0.6015698 0.7988203 7.902054e-05 0.5633202 0.8262387 -7.939103e-05 0.5611816 0.8276926 7.308734e-05 0.5214347 0.8532912 -7.331597e-05 0.5194121 0.8545238 6.697866e-05 0.4763611 0.8792498 6.090843e-05 0.4782546 0.8782213 -6.73035e-05 0.4321364 0.9018082 5.474221e-05 0.4338841 0.9009687 -6.113796e-05 0.3868453 0.9221447 4.849676e-05 0.3884336 0.9214768 -5.495162e-05 0.3406024 0.9402074 4.224163e-05 0.3420202 0.9396926 -4.872313e-05 0.2935208 0.9559526 3.591452e-05 0.2947563 0.9555724 -4.239132e-05 0.2457138 0.9693425 2.944212e-05 0.2467565 0.9690775 -3.602165e-05 0.1973014 0.9803429 2.298895e-05 0.1981461 0.9801725 -2.967506e-05 0.1484032 0.9889269 1.651715e-05 0.1490429 0.9888307 -2.31929e-05 0.09913784 0.9950737 1.004056e-05 0.09956804 0.9950308 -1.661516e-05 0.04963115 0.9987676 3.346652e-06 0 1 -3.33786e-06 0.04984522 0.9987569 -9.925634e-06 -0.04963115 0.9987676 3.346567e-06 0 1 -3.33786e-06 -0.09913784 0.9950737 1.004019e-05 -0.04984522 0.9987569 -9.925464e-06 -0.1484032 0.9889269 1.65167e-05 -0.09956804 0.9950308 -1.661496e-05 -0.1490429 0.9888307 -2.319328e-05 -0.1973014 0.9803429 2.298891e-05 -0.1981461 0.9801725 -2.967598e-05 -0.2457138 0.9693425 2.944233e-05 -0.2467565 0.9690775 -3.602121e-05 -0.2935208 0.9559526 3.59144e-05 -0.2947563 0.9555724 -4.239151e-05 -0.3406024 0.9402074 4.224145e-05 -0.3420202 0.9396926 -4.872239e-05 -0.3868453 0.9221447 4.849593e-05 -0.3884336 0.9214768 -5.495049e-05 -0.4321364 0.9018082 5.474334e-05 -0.4338841 0.9009687 -6.113789e-05 -0.4763611 0.8792498 6.090678e-05 -0.4782546 0.8782213 -6.73038e-05 -0.5194121 0.8545238 6.697806e-05 -0.5214347 0.8532912 -7.331671e-05 -0.5611816 0.8276926 7.308748e-05 -0.5633202 0.8262387 -7.939177e-05 -0.6015698 0.7988203 7.902069e-05 -0.6038042 0.7971327 -8.532339e-05 -0.640475 0.7679791 8.498036e-05 -0.6427878 0.7660443 -9.119033e-05 -0.6777996 0.7352467 9.08814e-05 -0.6801726 0.7330521 -9.708859e-05 -0.7134563 0.7006997 9.664911e-05 -0.7158676 0.698236 -0.0001028983 -0.7473527 0.6644276 0.0001023653 -0.7497804 0.6616868 -0.0001085883 -0.7794083 0.6265162 0.0001081234 -0.7818321 0.6234891 -0.0001142642 -0.8095415 0.5870628 0.000113738 -0.8119377 0.583744 -0.0001199064 -0.8376809 0.5461599 0.0001193026 -0.8400261 0.542546 -0.0001254365 -0.8637542 0.5039133 0.0001248421 -0.8660251 0.5000005 -0.0001309472 -0.8877 0.4604224 0.000130303 -0.889872 0.4562103 -0.0001363673 -0.9094565 0.4157991 0.0001357175 -0.9289727 0.3701482 0.0001410355 -0.9115059 0.4112872 -0.000141792 -0.9461982 0.3235875 0.0001463632 -0.9308738 0.3653409 -0.0001470686 -0.9607079 0.2775614 0.000142071 -0.9479272 0.3184869 -0.0001523367 -0.9726588 0.2322391 0.0002035653 -0.9626242 0.2708406 -0.0002194133 -0.9824729 0.1864055 0.0002538864 -0.9749278 0.2225209 -0.000275319 -0.9901281 0.1401651 0.0002929885 -0.9848079 0.1736473 -0.0003200283 -0.9922392 0.1243437 -0.0003536286 -0.9956086 0.09361376 0.0003209241 -0.9972037 0.07473111 -0.0003759193 -0.9989014 0.04685896 0.0003377704 -0.9996891 0.02493026 -0.0003871081 -1 0 0.0003433228 -0.9996891 -0.02493026 -0.0003871081 -0.9989014 -0.04685896 0.0003377704 -0.9972037 -0.07473111 -0.0003759193 -0.9956086 -0.09361376 0.0003209239 -0.9922392 -0.1243437 -0.0003536289 -0.9901281 -0.1401651 0.000292988 -0.9848079 -0.1736473 -0.000320028 -0.9824729 -0.1864055 0.0002538864 -0.9749278 -0.2225209 -0.0002753187 -0.9726588 -0.2322391 0.0002035656 -0.9626242 -0.2708406 -0.0002194127 -0.9607079 -0.2775614 0.0001420712 -0.9479272 -0.3184869 -0.0001523368 -0.9461982 -0.3235875 0.000146363 -0.9308738 -0.3653409 -0.0001470678 -0.9289727 -0.3701482 0.000141036 -0.9115059 -0.4112872 -0.0001417908 -0.9094565 -0.4157991 0.0001357197 -0.8877 -0.4604224 0.0001303028 -0.889872 -0.4562103 -0.0001363658 -0.8637542 -0.5039133 0.0001248423 -0.8660251 -0.5000005 -0.0001309471 -0.8376809 -0.5461599 0.000119303 -0.8400261 -0.542546 -0.000125435 -0.8095415 -0.5870628 0.0001137368 -0.8119377 -0.583744 -0.0001199069 -0.7794083 -0.6265162 0.0001081253 -0.7818321 -0.6234891 -0.0001142642 -0.7473527 -0.6644276 0.000102365 -0.7497804 -0.6616868 -0.0001085871 -0.7134563 -0.7006997 9.665e-05 -0.7158676 -0.698236 -0.0001028991 -0.6777996 -0.7352467 9.088005e-05 -0.6801726 -0.7330521 -9.708799e-05 -0.640475 -0.7679791 8.498036e-05 -0.6427878 -0.7660443 -9.118988e-05 -0.6015698 -0.7988203 7.902054e-05 -0.6038042 -0.7971327 -8.532278e-05 -0.5611816 -0.8276926 7.308734e-05 -0.5633202 -0.8262387 -7.939103e-05 -0.5194121 -0.8545238 6.697866e-05 -0.5214347 -0.8532912 -7.331597e-05 -0.4763611 -0.8792498 6.090843e-05 -0.4782546 -0.8782213 -6.73035e-05 -0.4338841 -0.9009687 -6.113796e-05 -0.4321364 -0.9018082 5.474221e-05 -0.3884336 -0.9214768 -5.495162e-05 -0.3868453 -0.9221447 4.849676e-05 -0.3420202 -0.9396926 -4.872313e-05 -0.3406024 -0.9402074 4.224163e-05 -0.2935208 -0.9559526 3.591452e-05 -0.2947563 -0.9555724 -4.239132e-05 -0.2467565 -0.9690775 -3.602165e-05 -0.2457138 -0.9693425 2.944212e-05 -0.1973014 -0.9803429 2.298895e-05 -0.1981461 -0.9801725 -2.967506e-05 -0.1484032 -0.9889269 1.651715e-05 -0.1490429 -0.9888307 -2.31929e-05 -0.09913784 -0.9950737 1.004056e-05 -0.09956804 -0.9950308 -1.661516e-05 -0.04963115 -0.9987676 3.346652e-06 -0.04984522 -0.9987569 -9.925634e-06 0 -1 -3.33786e-06 0.04963115 -0.9987676 3.346567e-06 0 -1 -3.33786e-06 0.09913784 -0.9950737 1.004019e-05 0.04984522 -0.9987569 -9.925464e-06 0.1484032 -0.9889269 1.65167e-05 0.09956804 -0.9950308 -1.661496e-05 0.1973014 -0.9803429 2.298891e-05 0.1490429 -0.9888307 -2.319328e-05 0.2457138 -0.9693425 2.944233e-05 0.1981461 -0.9801725 -2.967598e-05 0.2935208 -0.9559526 3.59144e-05 0.2467565 -0.9690775 -3.602121e-05 0.3406024 -0.9402074 4.224145e-05 0.2947563 -0.9555724 -4.239151e-05 0.3868453 -0.9221447 4.849593e-05 0.3420202 -0.9396926 -4.872239e-05 0.4321364 -0.9018082 5.474334e-05 0.3884336 -0.9214768 -5.495049e-05 0.4763611 -0.8792498 6.090678e-05 0.4338841 -0.9009687 -6.113789e-05 0.5194121 -0.8545238 6.697806e-05 0.4782546 -0.8782213 -6.73038e-05 0.5611816 -0.8276926 7.308748e-05 0.5214347 -0.8532912 -7.331671e-05 0.6015698 -0.7988203 7.902069e-05 0.5633202 -0.8262387 -7.939177e-05 0.640475 -0.7679791 8.498036e-05 0.6038042 -0.7971327 -8.532339e-05 0.6777996 -0.7352467 9.08814e-05 0.6427878 -0.7660443 -9.119033e-05 0.7134563 -0.7006997 9.664911e-05 0.6801726 -0.7330521 -9.708859e-05 0.7158676 -0.698236 -0.0001028983 0.7473527 -0.6644276 0.0001023653 0.7497804 -0.6616868 -0.0001085883 0.7794083 -0.6265162 0.0001081234 0.7818321 -0.6234891 -0.0001142642 0.8095415 -0.5870628 0.000113738 0.8119377 -0.583744 -0.0001199064 0.8376809 -0.5461599 0.0001193026 0.8400261 -0.542546 -0.0001254365 0.8637542 -0.5039133 0.0001248421 0.8660251 -0.5000005 -0.0001309472 0.8877 -0.4604224 0.000130303 0.889872 -0.4562103 -0.0001363673 0.9094565 -0.4157991 0.0001357175 0.9115059 -0.4112872 -0.000141792 0.9289727 -0.3701482 0.0001410355 0.9308738 -0.3653409 -0.0001470686 0.9461982 -0.3235875 0.0001463632 0.9479272 -0.3184869 -0.0001523367 0.960242 -0.279169 0.0001305801 0.9626242 -0.2708406 -0.0002812302 0.97148 -0.2371217 0.0002343973 0.9808782 -0.1946225 0.0002879784 0.9749278 -0.2225209 -0.0003599556 0.9848078 -0.1736473 -0.0003883835 0.9884176 -0.1517584 0.0002912886 0.9940851 -0.1086035 0.0002444218 0.9922392 -0.1243437 -0.0003666863 0.9978693 -0.06524519 0.0001473772 0.9972037 -0.07473111 -0.0002946393 0.9997632 -0.02176242 0 0.9996892 -0.02493026 -0.0001723936 0 0 -1 0 0 -1 0 0 -1 0 0 -1 0 0 -1 0 0 -1 0 0 -1 0 0 -1 0 0 -1 0 0 -1 0 0 -1 0 0 -1 0 0 -1 0 0 -1 0 0 -1 0 0 -1 0 0 -1 0 0 -1 0 0 -1 0 0 -1 0 0 -1 0 0 -1 0 0 -1 0 0 -1 0 0 -1 0 0 -1 0 0 -1 0 0 -1 0 0 -1 0 0 -1 0 0 -1 0 0 -1 0 -0 -1 0 -0 -1 0 -0 -1 0 -0 -1 0 0 -1 0 0 -1 0 -0 -1 0 0 -1 0 0 -1 0 0 -1 0 0 -1 0 0 -1 0 -0 -1 0 -0 -1 0 -0 -1 0 -0 -1 0 0 -1 0 0 -1 0 -0 -1 0 -0 -1 0 0 -1 0 0 -1 0 -0 -1 0 0 -1 0 0 -1 0 0 -1 0 -0 -1 0 -0 -1 0 0 -1 0 0 -1 0 -0 -1 0 -0 -1 0 0 -1 0 0 -1 0 0 -1 0 0 -1 0 0 -1 0 0 -1 0 -0 -1 0 -0 -1 0 -0 -1 0 -0 -1 0 0 -1 0 0 -1 0 -0 -1 0 -0 -1 0 -0 -1 0 -0 -1 0 -0 -1 0 0 -1 0 0 -1 0 0 -1 0 0 -1 0 0 -1 0 -0 -1 0 -0 -1 0 -0 -1 0 0 -1 0 0 -1 0 0 -1 0 0 -1 -0 -0 -1 -0 -0 -1 -0 -0 -1 0 0 -1 0 0 -1 0 0 -1 0 0 -1 -0 -0 -1 -0 -0 -1 -0 -0 -1 -0 -0 -1 0 -0 -1 0 0 -1 0 0 -1 0 0 -1 -0 -0 -1 0 0 -1 -0 -0 -1 -0 -0 -1 0 0 -1 0 0 -1 0 0 -1 0 0 -1 0 -0 -1 -0 -0 -1 0 -0 -1 0 0 -1 0 0 -1 -0 -0 -1 0 0 -1 0 0 -1 0 0 -1 0 0 -1 0 0 -1 0 -0 -1 0 -0 -1 0 -0 -1 0 -0 -1 0 0 1 0 0 1 0 0 1 0 0 1 0 0 1 0 0 1 0 0 1 0 0 1 0 0 1 0 0 1 0 0 1 0 0 1 0 0 1 0 0 1 0 0 1 0 0 1 0 0 1 0 0 1 0 0 1 0 0 1 0 0 1 0 0 1 0 0 1 0 0 1 0 0 1 0 0 1 0 0 1 0 0 1 0 0 1 0 0 1 0 0 1 0 0 1 0 0 1 0 0 1 0 0 1 0 0 1 0 0 1 0 0 1 0 0 1 0 0 1 0 0 1 0 0 1 0 0 1 0 0 1 0 0 1 0 0 1 0 0 1 0 0 1 0 0 1 0 0 1 0 0 -1 0 0 -1 0 0 -1 0 0 -1 0 0 -1 0 0 -1 0 0 -1 0 0 -1 0 0 -1 0 0 -1 0 0 -1 0 0 -1 0 0 -1 0 0 -1 0 0 1 0 0 1 0 0 1 0 0 1 0 0 1 0 0 1 0 0 1 0 0 1 0 0 1 0 0 1 0 0 1 0 0 1 0 0 1 0 0 1 0 0 1 0 0 1 0 0 1 0 0 1 0 0 1 0 0 1 0 0 1 0 0 1 0 0 1 0 0 1 0 0 1 0 0 1 0 0 1 0 0 1 0 0 1 0 0 1 0 0 1 0 0 1 0 0 1 0 0 1 0 0 1 0 0 1 0 0 1 0 0 1 0 0 1 0 0 1 0 0 1 0 0 1 0 0 1 0 0 1 0 0 1 0 0 1 0 0 1 0 0 1 0 0 1 0 0 1 0 0 -1 0 0 -1 0 0 -1 0 -0 -1 0 0 -1 0 0 -1 0 0 -1 -1 0 0 -1 -0 0 0 0 1 0 0 1 -1 -0 -0 -1 0 0 0 0 1 0 0 1 1 0 0 1 0 0 1 -0 0 0 -1 0 0 -1 0 -0 -1 0 0 -1 0 0 -1 0 0 -1 0 0 1 0 0 1 0 0 1 0 0 1 0 0 1 0 0 1 0</float_array>
          <technique_common>
            <accessor count="530" source="#cubenormals-array0-array" stride="3">
              <param type="float" name="X"/>
              <param type="float" name="Y"/>
              <param type="float" name="Z"/>
            </accessor>
          </technique_common>
        </source>
        <vertices id="cubeverts-array0-vertices">
          <input semantic="POSITION" source="#cubeverts-array0"/>
        </vertices>
        <triangles count="530" material="ref_base_link_body_shape003">
          <input offset="0" semantic="VERTEX" source="#cubeverts-array0-vertices"/>
          <input offset="1" semantic="NORMAL" source="#cubenormals-array0"/>
          <p>0 0 1 0 2 0 2 1 3 1 4 1 1 2 3 2 2 2 4 3 5 3 6 3 3 4 5 4 4 4 6 5 7 5 8 5 5 6 7 6 6 6 8 7 9 7 10 7 7 8 9 8 8 8 10 9 11 9 12 9 9 10 11 10 10 10 12 11 13 11 14 11 11 12 13 12 12 12 14 13 15 13 16 13 13 14 15 14 14 14 16 15 17 15 18 15 15 16 17 16 16 16 18 17 19 17 20 17 17 18 19 18 18 18 20 19 21 19 22 19 19 20 21 20 20 20 21 21 23 21 22 21 22 22 23 22 24 22 23 23 25 23 24 23 24 24 25 24 26 24 25 25 27 25 26 25 26 26 27 26 28 26 27 27 29 27 28 27 28 28 29 28 30 28 29 29 31 29 30 29 30 30 31 30 32 30 31 31 33 31 32 31 32 32 33 32 34 32 33 33 35 33 34 33 34 34 35 34 36 34 35 35 37 35 36 35 36 36 37 36 38 36 37 37 39 37 38 37 38 38 39 38 40 38 39 39 41 39 40 39 40 40 41 40 42 40 41 41 43 41 42 41 42 42 43 42 44 42 44 43 45 43 46 43 43 44 45 44 44 44 46 45 47 45 48 45 45 46 47 46 46 46 48 47 49 47 50 47 47 48 49 48 48 48 50 49 51 49 52 49 49 50 51 50 50 50 52 51 53 51 54 51 51 52 53 52 52 52 54 53 55 53 56 53 53 54 55 54 54 54 56 55 57 55 58 55 55 56 57 56 56 56 58 57 59 57 60 57 57 58 59 58 58 58 60 59 61 59 62 59 59 60 61 60 60 60 62 61 63 61 64 61 64 62 63 62 65 62 61 63 63 63 62 63 65 64 66 64 67 64 63 65 66 65 65 65 67 66 68 66 69 66 66 67 68 67 67 67 69 68 70 68 71 68 68 69 70 69 69 69 70 70 72 70 71 70 71 71 72 71 73 71 72 72 74 72 73 72 73 73 74 73 75 73 74 74 76 74 75 74 75 75 76 75 77 75 76 76 78 76 77 76 77 77 78 77 79 77 78 78 80 78 79 78 79 79 80 79 81 79 80 80 82 80 81 80 81 81 82 81 83 81 82 82 84 82 83 82 83 83 84 83 85 83 84 84 86 84 85 84 85 85 86 85 87 85 86 86 88 86 87 86 87 87 88 87 89 87 88 88 90 88 89 88 89 89 90 89 91 89 90 90 92 90 91 90 91 91 92 91 93 91 92 92 94 92 93 92 93 93 94 93 95 93 94 94 96 94 95 94 95 95 96 95 97 95 96 96 98 96 97 96 97 97 98 97 99 97 98 98 100 98 99 98 99 99 100 99 101 99 100 100 102 100 101 100 101 101 102 101 103 101 102 102 104 102 103 102 103 103 104 103 105 103 104 104 106 104 105 104 105 105 106 105 107 105 106 106 108 106 107 106 107 107 108 107 109 107 108 108 110 108 109 108 109 109 110 109 111 109 111 110 112 110 113 110 110 111 112 111 111 111 113 112 114 112 115 112 112 113 114 113 113 113 115 114 116 114 117 114 114 115 116 115 115 115 117 116 118 116 119 116 116 117 118 117 117 117 119 118 120 118 121 118 118 119 120 119 119 119 121 120 122 120 123 120 120 121 122 121 121 121 122 122 124 122 123 122 123 123 124 123 125 123 124 124 126 124 125 124 125 125 126 125 127 125 126 126 128 126 127 126 127 127 128 127 129 127 128 128 130 128 129 128 129 129 130 129 131 129 130 130 132 130 131 130 131 131 132 131 133 131 132 132 134 132 133 132 133 133 134 133 135 133 134 134 136 134 135 134 135 135 136 135 137 135 136 136 138 136 137 136 137 137 138 137 139 137 138 138 140 138 139 138 139 139 140 139 141 139 140 140 142 140 141 140 141 141 142 141 143 141 142 142 144 142 143 142 143 143 144 143 145 143 144 144 146 144 145 144 145 145 146 145 147 145 147 146 148 146 149 146 146 147 148 147 147 147 149 148 150 148 151 148 148 149 150 149 149 149 151 150 152 150 153 150 150 151 152 151 151 151 153 152 154 152 155 152 152 153 154 153 153 153 155 154 156 154 157 154 154 155 156 155 155 155 157 156 158 156 159 156 156 157 158 157 157 157 159 158 160 158 161 158 158 159 160 159 159 159 161 160 162 160 163 160 160 161 162 161 161 161 163 162 164 162 165 162 162 163 164 163 163 163 165 164 166 164 167 164 164 165 166 165 165 165 167 166 168 166 169 166 166 167 168 167 167 167 169 168 170 168 171 168 168 169 170 169 169 169 171 170 172 170 173 170 170 171 172 171 171 171 172 172 174 172 173 172 173 173 174 173 175 173 174 174 176 174 175 174 175 175 176 175 177 175 176 176 178 176 177 176 177 177 178 177 179 177 179 178 180 178 181 178 178 179 180 179 179 179 180 180 182 180 181 180 181 181 182 181 183 181 183 182 184 182 185 182 182 183 184 183 183 183 185 184 186 184 187 184 184 185 186 185 185 185 187 186 188 186 189 186 186 187 188 187 187 187 189 188 190 188 191 188 188 189 190 189 189 189 191 190 192 190 193 190 193 191 192 191 194 191 190 192 192 192 191 192 194 193 195 193 196 193 192 194 195 194 194 194 196 195 197 195 198 195 195 196 197 196 196 196 198 197 199 197 200 197 197 198 199 198 198 198 200 199 201 199 202 199 199 200 201 200 200 200 202 201 203 201 204 201 201 202 203 202 202 202 204 203 205 203 206 203 203 204 205 204 204 204 206 205 207 205 208 205 205 206 207 206 206 206 208 207 209 207 210 207 207 208 209 208 208 208 210 209 211 209 212 209 209 210 211 210 210 210 212 211 213 211 214 211 211 212 213 212 212 212 214 213 215 213 216 213 213 214 215 214 214 214 216 215 217 215 218 215 215 216 217 216 216 216 218 217 219 217 220 217 217 218 219 218 218 218 220 219 221 219 222 219 219 220 221 220 220 220 222 221 223 221 224 221 221 222 223 222 222 222 223 223 225 223 224 223 224 224 225 224 226 224 225 225 227 225 226 225 226 226 227 226 228 226 227 227 229 227 228 227 228 228 229 228 230 228 229 229 231 229 230 229 230 230 231 230 232 230 231 231 233 231 232 231 232 232 233 232 234 232 233 233 235 233 234 233 234 234 235 234 236 234 235 235 237 235 236 235 236 236 237 236 238 236 237 237 239 237 238 237 238 238 239 238 240 238 239 239 241 239 240 239 240 240 241 240 242 240 241 241 243 241 242 241 242 242 243 242 244 242 243 243 245 243 244 243 244 244 245 244 246 244 246 245 247 245 248 245 245 246 247 246 246 246 247 247 249 247 248 247 248 248 249 248 250 248 250 249 251 249 252 249 249 250 251 250 250 250 252 251 253 251 254 251 251 252 253 252 252 252 254 253 1 253 0 253 253 254 1 254 254 254 160 255 164 255 162 255 154 256 152 256 156 256 164 257 168 257 166 257 164 258 170 258 168 258 160 259 170 259 164 259 158 260 170 260 160 260 152 261 148 261 156 261 150 262 148 262 152 262 158 263 174 263 170 263 156 264 174 264 158 264 170 265 174 265 172 265 146 266 144 266 148 266 174 267 178 267 176 267 174 268 180 268 178 268 148 269 138 269 156 269 144 270 138 270 148 270 140 271 138 271 142 271 142 272 138 272 144 272 156 273 182 273 174 273 174 274 182 274 180 274 132 275 130 275 134 275 134 276 130 276 136 276 138 277 128 277 156 277 136 278 128 278 138 278 130 279 128 279 136 279 184 280 192 280 186 280 186 281 192 281 188 281 188 282 192 282 190 282 128 283 126 283 156 283 184 284 199 284 192 284 192 285 199 285 195 285 195 286 199 286 197 286 122 287 120 287 124 287 124 288 120 288 126 288 120 289 116 289 126 289 118 290 116 290 120 290 199 291 205 291 201 291 201 292 205 292 203 292 116 293 114 293 126 293 205 294 209 294 207 294 184 295 209 295 199 295 199 296 209 296 205 296 184 297 211 297 209 297 182 298 211 298 184 298 114 299 106 299 126 299 108 300 106 300 110 300 110 301 106 301 112 301 112 302 106 302 114 302 211 303 217 303 213 303 213 304 217 304 215 304 106 305 102 305 126 305 104 306 102 306 106 306 126 307 102 307 156 307 217 308 221 308 219 308 100 309 98 309 102 309 211 310 223 310 217 310 217 311 223 311 221 311 102 312 94 312 156 312 96 313 94 313 98 313 98 314 94 314 102 314 223 315 227 315 225 315 211 316 227 316 223 316 94 317 90 317 156 317 92 318 90 318 94 318 227 319 235 319 229 319 229 320 235 320 231 320 231 321 235 321 233 321 182 322 235 322 211 322 211 323 235 323 227 323 156 324 235 324 182 324 84 325 82 325 86 325 86 326 82 326 88 326 80 327 78 327 82 327 82 328 78 328 88 328 237 329 243 329 239 329 239 330 243 330 241 330 74 331 72 331 76 331 76 332 72 332 78 332 72 333 70 333 78 333 88 334 70 334 90 334 78 335 70 335 88 335 235 336 251 336 237 336 243 337 251 337 245 337 245 338 251 338 247 338 247 339 251 339 249 339 237 340 251 340 243 340 68 341 66 341 70 341 70 342 63 342 90 342 66 343 63 343 70 343 235 344 3 344 251 344 251 345 3 345 253 345 253 346 3 346 1 346 3 347 7 347 5 347 59 348 57 348 61 348 55 349 53 349 57 349 57 350 53 350 61 350 7 351 13 351 9 351 9 352 13 352 11 352 235 353 13 353 3 353 3 354 13 354 7 354 49 355 47 355 51 355 51 356 47 356 53 356 61 357 47 357 63 357 53 358 47 358 61 358 63 359 47 359 90 359 13 360 19 360 15 360 15 361 19 361 17 361 13 362 21 362 19 362 45 363 43 363 47 363 13 364 23 364 21 364 43 365 41 365 47 365 41 366 39 366 47 366 23 367 27 367 25 367 235 368 27 368 13 368 13 369 27 369 23 369 156 370 27 370 235 370 47 371 37 371 90 371 39 372 37 372 47 372 90 373 37 373 156 373 156 374 37 374 27 374 27 375 31 375 29 375 35 376 33 376 37 376 37 377 33 377 27 377 27 378 33 378 31 378 242 379 244 379 255 379 244 380 246 380 255 380 246 381 248 381 255 381 0 382 255 382 254 382 254 383 255 383 252 383 252 384 255 384 250 384 250 385 255 385 248 385 165 386 159 386 161 386 165 387 161 387 163 387 169 388 157 388 159 388 169 389 165 389 167 389 169 390 159 390 165 390 151 391 153 391 155 391 171 392 157 392 169 392 149 393 155 393 157 393 149 394 151 394 155 394 147 395 149 395 157 395 179 396 171 396 173 396 179 397 173 397 175 397 179 398 175 398 177 398 141 399 143 399 145 399 141 400 145 400 147 400 141 401 147 401 157 401 181 402 171 402 179 402 189 403 181 403 183 403 189 404 183 404 185 404 189 405 185 405 187 405 189 406 171 406 181 406 194 407 189 407 191 407 194 408 191 408 193 408 196 409 189 409 194 409 200 410 171 410 189 410 200 411 189 411 196 411 200 412 196 412 198 412 202 413 171 413 200 413 208 414 202 414 204 414 208 415 204 415 206 415 212 416 208 416 210 416 218 417 214 417 216 417 222 418 171 418 202 418 222 419 202 419 208 419 222 420 208 420 212 420 222 421 214 421 218 421 222 422 212 422 214 422 222 423 218 423 220 423 226 424 171 424 222 424 226 425 222 425 224 425 226 426 157 426 171 426 226 427 141 427 157 427 230 428 226 428 228 428 236 429 230 429 232 429 236 430 226 430 230 430 236 431 232 431 234 431 240 432 236 432 238 432 240 433 226 433 236 433 242 434 141 434 226 434 242 435 226 435 240 435 256 436 139 436 141 436 256 437 137 437 139 437 256 438 135 438 137 438 256 439 133 439 135 439 256 440 131 440 133 440 257 441 129 441 256 441 256 442 129 442 131 442 257 443 127 443 129 443 257 444 125 444 127 444 257 445 123 445 125 445 257 446 121 446 123 446 257 447 119 447 121 447 257 448 117 448 119 448 257 449 115 449 117 449 111 450 113 450 115 450 109 451 111 451 115 451 107 452 109 452 115 452 105 453 107 453 115 453 103 454 105 454 115 454 101 455 103 455 115 455 97 456 99 456 101 456 97 457 101 457 115 457 91 458 93 458 95 458 89 459 95 459 97 459 89 460 97 460 115 460 89 461 91 461 95 461 83 462 85 462 87 462 83 463 87 463 89 463 83 464 89 464 115 464 77 465 79 465 81 465 77 466 81 466 83 466 77 467 83 467 115 467 75 468 77 468 115 468 71 469 73 469 75 469 71 470 75 470 115 470 67 471 69 471 71 471 64 472 71 472 115 472 64 473 67 473 71 473 64 474 65 474 67 474 58 475 64 475 115 475 58 476 60 476 62 476 58 477 62 477 64 477 54 478 56 478 58 478 14 479 58 479 115 479 14 480 54 480 58 480 18 481 14 481 16 481 48 482 50 482 52 482 20 483 14 483 18 483 46 484 48 484 52 484 22 485 14 485 20 485 24 486 14 486 22 486 42 487 54 487 14 487 42 488 44 488 46 488 42 489 52 489 54 489 42 490 46 490 52 490 26 491 14 491 24 491 38 492 40 492 42 492 30 493 26 493 28 493 36 494 38 494 42 494 32 495 14 495 26 495 32 496 26 496 30 496 34 497 42 497 14 497 34 498 14 498 32 498 34 499 36 499 42 499 10 500 258 500 8 500 12 501 258 501 10 501 14 502 258 502 12 502 258 503 0 503 2 503 258 504 2 504 4 504 258 505 4 505 6 505 258 506 6 506 8 506 257 507 256 507 259 507 259 508 256 508 260 508 261 509 259 509 260 509 262 510 259 510 261 510 263 511 262 511 264 511 262 512 261 512 264 512 265 513 263 513 264 513 265 514 264 514 266 514 265 515 0 515 258 515 266 516 255 516 0 516 266 517 0 517 265 517 141 518 260 518 256 518 261 519 266 519 264 519 261 520 260 520 141 520 242 521 261 521 141 521 255 522 266 522 261 522 255 523 261 523 242 523 115 524 257 524 259 524 262 525 258 525 14 525 262 526 14 526 115 526 262 527 115 527 259 527 265 528 262 528 263 528 265 529 258 529 262 529</p>
        </triangles>
      </mesh>
    </geometry>
  </library_geometries>
  <library_materials>
    <material id="mat_base_link_body_shape003" name="base_link_body_shape003">
      <instance_effect url="#effect_base_link_body_shape003"/>
    </material>
  </library_materials>
  <library_visual_scenes>
    <visual_scene id="myscene">
      <node id="node0" name="node0">
        <instance_geometry url="#geometry0">
          <bind_material>
            <technique_common>
              <instance_material symbol="ref_base_link_body_shape003" target="#mat_base_link_body_shape003"/>
            </technique_common>
          </bind_material>
        </instance_geometry>
      </node>
    </visual_scene>
  </library_visual_scenes>
  <scene>
    <instance_visual_scene url="#myscene"/>
  </scene>
</COLLADA>
